<svg xmlns="http://www.w3.org/2000/svg" xmlns:xlink="http://www.w3.org/1999/xlink" width="40" zoomAndPan="magnify" viewBox="0 0 30 30.000001" height="40" preserveAspectRatio="xMidYMid meet" version="1.0"><defs><clipPath id="0185cc0c3e"><path d="M 1.535156 1.15625 L 15 1.15625 L 15 28 L 1.535156 28 Z M 1.535156 1.15625 " clip-rule="nonzero"/></clipPath><clipPath id="f292044bb9"><path d="M 15 1.15625 L 28.390625 1.15625 L 28.390625 28 L 15 28 Z M 15 1.15625 " clip-rule="nonzero"/></clipPath></defs><g clip-path="url(#0185cc0c3e)"><path fill="#5e17eb" d="M 12.597656 1.476562 C 11.695312 1.320312 10.703125 1.742188 10.242188 2.539062 C 10.113281 2.75 9.957031 3.042969 9.660156 2.980469 C 8.871094 2.847656 8.03125 2.933594 7.335938 3.355469 C 6.109375 4.039062 5.445312 5.691406 6.082031 6.992188 C 6.269531 7.308594 6.007812 7.742188 5.648438 7.753906 C 4.578125 7.917969 3.632812 8.835938 3.570312 9.941406 C 3.523438 10.417969 3.675781 10.878906 3.90625 11.292969 C 4.113281 11.582031 3.960938 12.03125 3.609375 12.121094 C 2.507812 12.503906 1.542969 13.761719 1.988281 14.945312 C 2.132812 15.460938 2.546875 15.808594 2.894531 16.183594 C 3.125 16.457031 2.886719 16.808594 2.839844 17.101562 C 3.378906 16.492188 4.128906 16.109375 4.929688 15.980469 C 5.503906 14.488281 7.253906 13.601562 8.800781 14.035156 C 9.289062 14.214844 9.242188 15.027344 8.71875 15.128906 C 8.238281 15.128906 7.742188 14.988281 7.277344 15.175781 C 6.53125 15.398438 6.042969 16.082031 5.839844 16.804688 C 5.722656 17.160156 5.285156 17.101562 4.992188 17.15625 C 4.074219 17.261719 3.34375 18.066406 3.21875 18.96875 C 3.621094 19.289062 3.480469 19.847656 3.707031 20.261719 C 4.125 21.214844 5.199219 21.75 6.210938 21.664062 C 6.527344 21.617188 6.824219 21.875 6.8125 22.199219 C 6.707031 22.722656 6.433594 23.238281 6.542969 23.789062 C 6.703125 24.90625 7.742188 25.789062 8.863281 25.804688 C 9.253906 25.769531 9.671875 25.898438 9.828125 26.289062 C 10.472656 27.535156 12.234375 27.882812 13.367188 27.105469 C 14.070312 26.660156 14.46875 25.824219 14.417969 25 C 14.398438 23.101562 14.449219 21.203125 14.394531 19.304688 C 14.121094 18.800781 14.226562 18.1875 13.929688 17.691406 C 13.460938 16.78125 12.378906 16.28125 11.375 16.402344 C 10.398438 16.5 9.46875 17.132812 9.121094 18.070312 C 10.191406 18.410156 11.109375 19.429688 10.996094 20.601562 C 10.941406 21.125 10.09375 21.207031 9.925781 20.722656 C 9.847656 20.351562 9.84375 19.933594 9.566406 19.648438 C 9.035156 18.996094 7.921875 19.019531 7.417969 19.6875 C 7.136719 19.996094 7.195312 20.4375 7.058594 20.804688 C 6.8125 21.203125 6.074219 21.089844 6.019531 20.601562 C 5.910156 19.414062 6.847656 18.320312 7.988281 18.082031 C 8.3125 16.773438 9.410156 15.730469 10.71875 15.433594 C 12.027344 15.0625 13.492188 15.503906 14.425781 16.484375 C 14.414062 13.859375 14.417969 11.234375 14.421875 8.605469 C 13.347656 9.496094 11.855469 9.933594 10.492188 9.527344 C 9.875 9.320312 9.214844 9.070312 8.777344 8.566406 C 8.492188 8.140625 9.019531 7.558594 9.464844 7.757812 C 9.851562 7.992188 10.214844 8.269531 10.65625 8.398438 C 11.546875 8.714844 12.570312 8.574219 13.347656 8.039062 C 13.914062 7.65625 14.453125 7.082031 14.46875 6.359375 C 14.476562 5.425781 14.476562 4.496094 14.46875 3.5625 C 14.46875 2.527344 13.59375 1.632812 12.597656 1.476562 Z M 12.597656 1.476562 " fill-opacity="1" fill-rule="nonzero"/></g><g clip-path="url(#f292044bb9)"><path fill="#5e17eb" d="M 27.148438 12.6875 C 26.894531 12.410156 27.136719 12.042969 27.191406 11.742188 C 26.65625 12.355469 25.90625 12.738281 25.109375 12.863281 C 24.503906 14.351562 22.796875 15.277344 21.226562 14.890625 C 20.695312 14.761719 20.699219 13.90625 21.234375 13.78125 C 21.683594 13.757812 22.144531 13.917969 22.585938 13.765625 C 23.367188 13.574219 23.914062 12.882812 24.121094 12.132812 C 24.222656 11.746094 24.679688 11.804688 24.988281 11.75 C 25.902344 11.640625 26.621094 10.839844 26.75 9.945312 C 26.515625 9.738281 26.441406 9.445312 26.414062 9.144531 C 26.21875 7.988281 25.050781 7.171875 23.90625 7.246094 C 23.5625 7.316406 23.152344 7.125 23.160156 6.734375 C 23.253906 6.167969 23.570312 5.613281 23.410156 5.023438 C 23.191406 3.851562 22.019531 3.007812 20.84375 3.09375 C 20.34375 3.175781 20.214844 2.617188 19.957031 2.320312 C 19.082031 1.207031 17.226562 1.152344 16.257812 2.171875 C 15.75 2.714844 15.457031 3.46875 15.496094 4.214844 C 15.503906 6.257812 15.492188 8.300781 15.5 10.34375 C 15.503906 11.457031 16.433594 12.402344 17.503906 12.589844 C 18.738281 12.835938 20.109375 12.152344 20.570312 10.960938 C 19.519531 10.613281 18.613281 9.640625 18.679688 8.480469 C 18.675781 7.933594 19.515625 7.792969 19.746094 8.253906 C 19.84375 8.625 19.820312 9.054688 20.105469 9.355469 C 20.621094 10.011719 21.726562 10.011719 22.246094 9.359375 C 22.53125 9.058594 22.507812 8.625 22.609375 8.25 C 22.84375 7.792969 23.667969 7.9375 23.671875 8.476562 C 23.746094 9.652344 22.8125 10.707031 21.6875 10.949219 C 21.28125 12.714844 19.417969 13.882812 17.65625 13.699219 C 16.851562 13.636719 16.125 13.234375 15.496094 12.753906 C 15.5 14.824219 15.496094 16.894531 15.5 18.964844 C 16.140625 18.925781 16.734375 18.628906 17.378906 18.605469 C 18.269531 18.574219 19.171875 18.894531 19.820312 19.503906 C 20.433594 20.089844 20.800781 20.902344 20.910156 21.738281 C 21.804688 22.261719 22.296875 23.488281 21.753906 24.425781 C 21.46875 24.832031 20.800781 24.515625 20.8125 24.0625 C 20.820312 23.734375 20.949219 23.378906 20.773438 23.070312 C 20.542969 22.589844 19.898438 22.375 19.433594 22.644531 C 19.09375 22.800781 19.007812 23.199219 18.773438 23.453125 C 18.496094 23.691406 18.046875 23.574219 17.902344 23.246094 C 17.742188 22.910156 17.972656 22.558594 18.144531 22.273438 C 18.5 21.722656 19.144531 21.449219 19.773438 21.355469 C 19.519531 20.550781 18.867188 19.890625 18.027344 19.726562 C 17.175781 19.484375 16.398438 20.054688 15.550781 20.039062 C 15.554688 21.871094 15.542969 23.699219 15.554688 25.527344 C 15.597656 26.617188 16.589844 27.515625 17.65625 27.574219 C 18.535156 27.644531 19.414062 27.175781 19.878906 26.429688 C 20.003906 26.273438 20.089844 26.035156 20.3125 25.988281 C 20.53125 25.972656 20.75 26.019531 20.96875 26.03125 C 22.261719 26.15625 23.601562 25.367188 24.082031 24.152344 C 24.386719 23.445312 24.375 22.617188 24.042969 21.925781 C 23.871094 21.585938 24.195312 21.195312 24.550781 21.199219 C 25.746094 21 26.734375 19.824219 26.558594 18.59375 C 26.539062 18.15625 26.246094 17.804688 26.132812 17.394531 C 26.109375 16.988281 26.5 16.839844 26.804688 16.710938 C 27.835938 16.261719 28.441406 14.992188 28.046875 13.921875 C 27.898438 13.414062 27.503906 13.050781 27.148438 12.6875 Z M 27.148438 12.6875 " fill-opacity="1" fill-rule="nonzero"/></g></svg>