<svg xmlns="http://www.w3.org/2000/svg" xmlns:xlink="http://www.w3.org/1999/xlink" width="48" zoomAndPan="magnify" viewBox="0 0 36 36.000001" height="48" preserveAspectRatio="xMidYMid meet" version="1.0"><defs><clipPath id="6dd0ddf038"><path d="M 2.539062 6.199219 L 33.1875 6.199219 L 33.1875 28.820312 L 2.539062 28.820312 Z M 2.539062 6.199219 " clip-rule="nonzero"/></clipPath></defs><g clip-path="url(#6dd0ddf038)"><path fill="#000000" d="M 30.78125 28.816406 L 4.914062 28.816406 C 4.714844 28.789062 4.574219 28.769531 4.484375 28.75 C 3.65625 28.578125 2.96875 27.9375 2.691406 27.175781 C 2.609375 26.945312 2.578125 26.707031 2.539062 26.464844 L 2.539062 8.511719 C 2.582031 8.398438 2.578125 8.269531 2.601562 8.167969 C 2.632812 8.035156 2.667969 7.886719 2.722656 7.761719 C 3.070312 6.957031 3.679688 6.457031 4.550781 6.269531 C 4.632812 6.25 4.710938 6.238281 4.792969 6.238281 C 4.898438 6.230469 5.003906 6.207031 5.113281 6.207031 C 13.542969 6.203125 22.058594 6.203125 30.667969 6.207031 C 30.734375 6.207031 30.796875 6.210938 30.863281 6.222656 C 30.929688 6.230469 30.992188 6.238281 31.058594 6.25 C 31.285156 6.277344 31.480469 6.332031 31.65625 6.40625 C 32.480469 6.769531 33.085938 7.53125 33.148438 8.441406 C 33.15625 8.585938 33.171875 8.730469 33.171875 8.875 C 33.136719 13.382812 33.15625 17.894531 33.15625 22.722656 C 33.15625 23.753906 33.183594 24.84375 33.167969 25.929688 C 33.164062 26.265625 33.15625 26.492188 33.144531 26.613281 C 33.078125 27.324219 32.734375 27.90625 32.121094 28.355469 C 31.828125 28.570312 31.5 28.707031 31.140625 28.765625 C 31.019531 28.785156 30.902344 28.800781 30.78125 28.816406 Z M 17.398438 19.796875 C 17.789062 19.941406 18.246094 19.847656 18.546875 19.570312 C 21.21875 17.121094 23.871094 14.695312 26.511719 12.296875 C 28.035156 10.910156 29.546875 9.53125 31.046875 8.160156 C 31.066406 8.136719 31.070312 8.117188 31.046875 8.09375 C 31.011719 8.058594 30.960938 8.039062 30.894531 8.039062 C 22.152344 8.039062 13.515625 8.035156 4.988281 8.035156 C 4.820312 8.035156 4.722656 8.074219 4.609375 8.179688 C 4.59375 8.195312 4.59375 8.210938 4.613281 8.226562 C 4.703125 8.304688 4.792969 8.386719 4.886719 8.46875 C 5.902344 9.382812 7.042969 10.421875 8.308594 11.585938 C 11.023438 14.082031 13.660156 16.496094 16.214844 18.828125 C 16.441406 19.035156 16.675781 19.246094 16.914062 19.460938 C 17.105469 19.636719 17.265625 19.75 17.398438 19.796875 Z M 31.265625 10.554688 C 31.265625 10.546875 31.261719 10.542969 31.257812 10.535156 C 31.25 10.53125 31.242188 10.53125 31.238281 10.535156 C 31.027344 10.695312 30.859375 10.882812 30.65625 11.066406 C 28.488281 13.054688 26.265625 15.097656 23.984375 17.203125 C 23.960938 17.222656 23.9375 17.242188 23.914062 17.257812 C 23.878906 17.28125 23.878906 17.304688 23.910156 17.332031 C 23.988281 17.394531 24.054688 17.453125 24.113281 17.507812 C 25.34375 18.648438 26.671875 19.878906 28.09375 21.207031 C 28.367188 21.464844 28.609375 21.691406 28.816406 21.894531 C 29.042969 22.113281 29.285156 22.320312 29.511719 22.539062 C 29.6875 22.707031 29.859375 22.867188 30.027344 23.019531 C 30.308594 23.269531 30.566406 23.535156 30.847656 23.785156 C 30.980469 23.90625 31.113281 24.027344 31.238281 24.15625 C 31.242188 24.164062 31.25 24.164062 31.253906 24.164062 C 31.265625 24.160156 31.273438 24.15625 31.273438 24.148438 C 31.273438 19.625 31.273438 15.101562 31.273438 10.582031 C 31.273438 10.574219 31.269531 10.570312 31.269531 10.5625 C 31.265625 10.5625 31.265625 10.558594 31.265625 10.554688 Z M 4.472656 24.164062 C 4.664062 23.976562 4.871094 23.78125 5.089844 23.574219 C 7.074219 21.714844 9.035156 19.871094 10.96875 18.042969 C 11.1875 17.835938 11.417969 17.617188 11.664062 17.394531 C 11.710938 17.351562 11.710938 17.308594 11.660156 17.265625 C 11.566406 17.183594 11.480469 17.101562 11.394531 17.027344 C 9.058594 14.867188 6.859375 12.847656 4.792969 10.964844 C 4.671875 10.851562 4.550781 10.742188 4.4375 10.636719 C 4.433594 10.632812 4.429688 10.632812 4.429688 10.636719 L 4.421875 24.144531 C 4.421875 24.191406 4.441406 24.199219 4.472656 24.164062 Z M 17.949219 21.753906 C 17.019531 21.792969 16.273438 21.460938 15.59375 20.832031 C 14.972656 20.257812 14.210938 19.554688 13.300781 18.71875 C 13.261719 18.683594 13.222656 18.648438 13.179688 18.613281 C 13.148438 18.59375 13.121094 18.59375 13.09375 18.621094 C 12.976562 18.722656 12.871094 18.835938 12.757812 18.941406 C 10.390625 21.171875 8.042969 23.386719 5.71875 25.582031 C 5.425781 25.859375 5.164062 26.105469 4.933594 26.3125 C 4.804688 26.425781 4.683594 26.542969 4.566406 26.65625 C 4.535156 26.6875 4.535156 26.71875 4.566406 26.75 C 4.75 26.941406 4.910156 26.929688 5.207031 26.929688 C 13.703125 26.929688 22.199219 26.929688 30.695312 26.929688 C 30.902344 26.929688 31.019531 26.910156 31.132812 26.742188 C 31.15625 26.703125 31.152344 26.667969 31.121094 26.636719 C 28.382812 24.085938 25.644531 21.527344 22.910156 18.972656 C 22.757812 18.828125 22.628906 18.699219 22.523438 18.585938 C 22.488281 18.550781 22.453125 18.546875 22.417969 18.582031 C 21.644531 19.285156 20.878906 19.996094 20.113281 20.707031 C 19.820312 20.976562 19.59375 21.164062 19.433594 21.265625 C 18.960938 21.566406 18.464844 21.730469 17.949219 21.753906 Z M 17.949219 21.753906 " fill-opacity="1" fill-rule="nonzero"/></g></svg>