<svg xmlns="http://www.w3.org/2000/svg" xmlns:xlink="http://www.w3.org/1999/xlink" width="40" zoomAndPan="magnify" viewBox="0 0 30 30.000001" height="40" preserveAspectRatio="xMidYMid meet" version="1.0"><defs><clipPath id="ad469c5a0f"><path d="M 2.015625 1.109375 L 28.144531 1.109375 L 28.144531 27.964844 L 2.015625 27.964844 Z M 2.015625 1.109375 " clip-rule="nonzero"/></clipPath></defs><g clip-path="url(#ad469c5a0f)"><path fill="#5170ff" d="M 15.183594 27.839844 C 15.042969 26.027344 14.960938 24.378906 14.773438 22.738281 C 14.640625 21.597656 14.4375 20.460938 14.148438 19.351562 C 13.621094 17.351562 12.332031 16.066406 10.332031 15.476562 C 9.050781 15.101562 7.746094 14.902344 6.421875 14.785156 C 4.953125 14.660156 3.480469 14.554688 2.015625 14.398438 C 3.066406 14.332031 4.113281 14.300781 5.160156 14.1875 C 6.648438 14.023438 8.132812 13.804688 9.617188 13.582031 C 10.007812 13.523438 10.390625 13.378906 10.769531 13.242188 C 12.378906 12.664062 13.460938 11.558594 14.027344 9.945312 C 14.457031 8.707031 14.671875 7.425781 14.792969 6.125 C 14.9375 4.511719 15.046875 2.890625 15.1875 1.109375 C 15.308594 2.695312 15.375 4.125 15.542969 5.535156 C 15.679688 6.773438 15.871094 8.015625 16.144531 9.234375 C 16.65625 11.488281 18.085938 12.890625 20.332031 13.480469 C 21.914062 13.894531 23.527344 14.066406 25.152344 14.191406 C 26.199219 14.273438 27.246094 14.328125 28.300781 14.457031 C 27.394531 14.519531 26.484375 14.574219 25.574219 14.644531 C 23.851562 14.78125 22.136719 14.929688 20.449219 15.355469 C 18.109375 15.945312 16.675781 17.386719 16.101562 19.730469 C 15.679688 21.445312 15.527344 23.183594 15.390625 24.929688 C 15.3125 25.84375 15.257812 26.761719 15.183594 27.839844 Z M 15.183594 27.839844 " fill-opacity="1" fill-rule="nonzero"/></g><path fill="#5170ff" d="M 23.015625 25.605469 C 22.984375 25.347656 22.933594 25.089844 22.914062 24.828125 C 22.765625 22.898438 22.132812 22.277344 20.199219 22.148438 C 19.949219 22.136719 19.699219 22.117188 19.433594 22 C 19.664062 21.960938 19.902344 21.914062 20.136719 21.890625 C 22.214844 21.710938 22.761719 21.167969 22.910156 19.117188 C 22.925781 18.945312 22.9375 18.769531 22.972656 18.597656 C 22.984375 18.53125 23.039062 18.476562 23.089844 18.398438 C 23.167969 18.984375 23.21875 19.546875 23.316406 20.105469 C 23.472656 21.023438 24.019531 21.574219 24.941406 21.738281 C 25.261719 21.796875 25.585938 21.835938 25.902344 21.882812 C 26.140625 21.917969 26.382812 21.945312 26.613281 22.066406 C 26.0625 22.140625 25.511719 22.199219 24.964844 22.289062 C 24.046875 22.445312 23.484375 22.980469 23.328125 23.90625 C 23.230469 24.464844 23.171875 25.03125 23.09375 25.59375 C 23.074219 25.59375 23.046875 25.601562 23.015625 25.605469 Z M 23.015625 25.605469 " fill-opacity="1" fill-rule="nonzero"/><path fill="#5170ff" d="M 3.367188 7.238281 C 4.085938 7.140625 4.640625 7.082031 5.199219 6.984375 C 6.117188 6.832031 6.671875 6.28125 6.828125 5.363281 C 6.925781 4.808594 6.984375 4.25 7.148438 3.679688 C 7.179688 3.941406 7.21875 4.199219 7.242188 4.460938 C 7.390625 6.378906 8.03125 7.003906 9.972656 7.125 C 10.210938 7.140625 10.453125 7.160156 10.710938 7.289062 C 10.449219 7.324219 10.1875 7.375 9.925781 7.390625 C 7.980469 7.550781 7.390625 8.148438 7.238281 10.09375 C 7.21875 10.355469 7.167969 10.613281 7.039062 10.855469 C 6.992188 10.386719 6.972656 9.90625 6.890625 9.441406 C 6.660156 8.140625 6.199219 7.691406 4.898438 7.460938 C 4.601562 7.40625 4.300781 7.40625 4.003906 7.375 C 3.84375 7.359375 3.683594 7.304688 3.367188 7.238281 Z M 3.367188 7.238281 " fill-opacity="1" fill-rule="nonzero"/></svg>