<svg xmlns="http://www.w3.org/2000/svg" xmlns:xlink="http://www.w3.org/1999/xlink" width="40" zoomAndPan="magnify" viewBox="0 0 30 30.000001" height="40" preserveAspectRatio="xMidYMid meet" version="1.0"><defs><clipPath id="41ae7581dc"><path d="M 0.484375 0 L 29.515625 0 L 29.515625 29.03125 L 0.484375 29.03125 Z M 0.484375 0 " clip-rule="nonzero"/></clipPath></defs><g clip-path="url(#41ae7581dc)"><path fill="#000000" d="M 15 29.03125 C 6.988281 29.03125 0.484375 22.527344 0.484375 14.515625 C 0.484375 6.503906 6.988281 0 15 0 C 23.011719 0 29.515625 6.503906 29.515625 14.515625 C 29.515625 22.527344 23.011719 29.03125 15 29.03125 Z M 15 0.582031 C 7.335938 0.582031 1.066406 6.851562 1.066406 14.515625 C 1.066406 22.179688 7.304688 28.453125 15 28.453125 C 22.695312 28.453125 28.933594 22.210938 28.933594 14.515625 C 28.933594 6.824219 22.664062 0.582031 15 0.582031 Z M 15 0.582031 " fill-opacity="1" fill-rule="nonzero"/></g><path fill="#000000" d="M 15 14.226562 C 14.972656 14.226562 14.972656 14.226562 14.941406 14.226562 L 5.273438 12.28125 C 5.128906 12.25 5.042969 12.136719 5.042969 11.992188 C 5.042969 11.84375 5.128906 11.730469 5.273438 11.699219 L 14.941406 9.433594 C 15 9.433594 15.027344 9.433594 15.085938 9.433594 L 24.753906 11.699219 C 24.898438 11.730469 24.988281 11.84375 24.988281 11.992188 C 24.988281 12.136719 24.871094 12.25 24.753906 12.28125 L 15.085938 14.226562 C 15.027344 14.226562 15.027344 14.226562 15 14.226562 Z M 6.726562 11.933594 L 15 13.617188 L 23.273438 11.933594 L 15 9.988281 Z M 6.726562 11.933594 " fill-opacity="1" fill-rule="nonzero"/><path fill="#000000" d="M 15.289062 19.65625 C 15.175781 19.65625 15.085938 19.65625 14.972656 19.65625 C 12.648438 19.769531 8.960938 18.582031 8.730469 18.378906 L 8.640625 18.289062 L 8.640625 13.527344 L 15 14.804688 L 20.75 13.527344 L 20.75 18.289062 L 20.660156 18.378906 C 20.457031 18.523438 17.496094 19.65625 15.289062 19.65625 Z M 9.25 17.941406 C 9.976562 18.230469 12.910156 19.132812 14.972656 19.046875 C 16.800781 19.132812 19.472656 18.230469 20.140625 17.941406 L 20.140625 14.285156 L 15 15.417969 L 9.25 14.253906 Z M 9.25 17.941406 " fill-opacity="1" fill-rule="nonzero"/><path fill="#000000" d="M 22.257812 12.398438 C 22.257812 12.398438 14.972656 11.785156 14.972656 11.785156 C 14.796875 11.785156 14.679688 11.613281 14.679688 11.46875 C 14.679688 11.292969 14.855469 11.175781 15 11.175781 L 22.257812 11.785156 C 22.460938 11.816406 22.402344 12.398438 22.257812 12.398438 Z M 22.257812 12.398438 " fill-opacity="1" fill-rule="nonzero"/><path fill="#000000" d="M 22.257812 16.636719 C 22.082031 16.636719 21.96875 16.492188 21.96875 16.34375 L 21.96875 12.105469 C 21.96875 11.933594 22.113281 11.816406 22.257812 11.816406 C 22.402344 11.816406 22.546875 11.960938 22.546875 12.105469 L 22.546875 16.34375 C 22.546875 16.492188 22.433594 16.636719 22.257812 16.636719 Z M 22.257812 16.636719 " fill-opacity="1" fill-rule="nonzero"/><path fill="#000000" d="M 21.96875 16.925781 L 22.578125 16.925781 L 22.578125 18.144531 L 21.96875 18.144531 Z M 21.96875 16.925781 " fill-opacity="1" fill-rule="nonzero"/></svg>